<svg width="22" height="22" viewBox="0 0 22 22" fill="none" xmlns="http://www.w3.org/2000/svg">
<path d="M22 2.60446C21.1819 3.04615 20.3101 3.33892 19.4012 3.48108C20.3362 2.794 21.0499 1.71431 21.3854 0.412923C20.5136 1.05262 19.5511 1.50446 18.5254 1.75662C17.6976 0.671846 16.5179 0 15.2309 0C12.7339 0 10.7236 2.49446 10.7236 5.55246C10.7236 5.99246 10.7539 6.41554 10.8281 6.81831C7.0785 6.59323 3.76063 4.38138 1.53175 1.012C1.14262 1.84292 0.914375 2.794 0.914375 3.81785C0.914375 5.74031 1.71875 7.44446 2.91775 8.43108C2.19312 8.41415 1.48225 8.15523 0.88 7.74738C0.88 7.76431 0.88 7.78631 0.88 7.80831C0.88 10.5058 2.44337 12.7465 4.4935 13.2626C4.12637 13.3862 3.72625 13.4454 3.311 13.4454C3.02225 13.4454 2.73075 13.4251 2.45712 13.3506C3.0415 15.5489 4.69975 17.1651 6.6715 17.2175C5.137 18.6949 3.18863 19.5851 1.07938 19.5851C0.7095 19.5851 0.35475 19.5648 0 19.5089C1.99787 21.0946 4.36563 22 6.919 22C15.2185 22 19.756 13.5385 19.756 6.204C19.756 5.95862 19.7491 5.72169 19.7395 5.48646C20.6346 4.70462 21.3867 3.72815 22 2.60446Z" fill="white"/>
</svg>
