<svg width="41" height="41" viewBox="0 0 41 41" fill="none" xmlns="http://www.w3.org/2000/svg">
<path d="M30.1666 26.6667H28.3233L27.6699 26.0367C29.1282 24.3426 30.1939 22.3471 30.7909 20.1931C31.3879 18.0391 31.5014 15.7797 31.1233 13.5767C30.0266 7.09 24.6133 1.91 18.0799 1.11667C15.783 0.826089 13.4501 1.0648 11.2597 1.81454C9.06922 2.56428 7.07931 3.80518 5.44221 5.44228C3.80512 7.07937 2.56422 9.06928 1.81448 11.2597C1.06474 13.4502 0.826028 15.7831 1.11661 18.08C1.90994 24.6133 7.08994 30.0267 13.5766 31.1233C15.7796 31.5015 18.039 31.388 20.193 30.791C22.3471 30.194 24.3425 29.1282 26.0366 27.67L26.6666 28.3233V30.1667L36.5833 40.0833C37.5399 41.04 39.1033 41.04 40.0599 40.0833C41.0166 39.1267 41.0166 37.5633 40.0599 36.6067L30.1666 26.6667ZM16.1666 26.6667C10.3566 26.6667 5.66661 21.9767 5.66661 16.1667C5.66661 10.3567 10.3566 5.66667 16.1666 5.66667C21.9766 5.66667 26.6666 10.3567 26.6666 16.1667C26.6666 21.9767 21.9766 26.6667 16.1666 26.6667Z" fill="#758BFD"/>
</svg>
